<svg version="1.1" id="Layer_1" xmlns="http://www.w3.org/2000/svg" xmlns:xlink="http://www.w3.org/1999/xlink" x="0px" y="0px"
	 width="100%" viewBox="0 0 6667 4167" enable-background="new 0 0 6667 4167" xml:space="preserve">
<path fill="#060407" opacity="1.000000" stroke="none" 
	d="
M3204.000000,4.000021 
	C3405.416992,4.000000 3606.833740,4.000000 3810.520020,5.302194 
	C3817.000977,17.751112 3826.583008,24.468622 3834.523682,32.410572 
	C4770.997559,969.014160 5707.540527,1905.548950 6644.081055,2842.085693 
	C6648.322754,2846.327881 6652.250977,2850.974609 6656.935547,2854.656494 
	C6661.553223,2858.285156 6666.946777,2860.925781 6672.000000,2864.000000 
	C6672.000000,3297.416992 6672.000000,3730.833984 6670.209473,4166.118652 
	C6659.087891,4167.984863 6649.756836,4167.980957 6640.425781,4167.981445 
	C4428.283691,4167.987305 2216.141846,4167.993652 4.000000,4168.000000 
	C4.000000,3747.916504 4.000000,3327.832764 5.232972,2905.320312 
	C13.174105,2897.512939 20.458578,2892.711670 26.507114,2886.672607 
	C232.388580,2681.116455 438.163544,2475.453369 643.875305,2269.727295 
	C649.484985,2264.117188 654.229614,2257.642334 660.449463,2250.762939 
	C676.293335,2234.825195 690.966736,2219.597168 705.862915,2204.590576 
	C724.041504,2186.277588 742.302795,2168.043701 760.717041,2149.967773 
	C787.145386,2124.025146 813.766602,2098.278809 840.223022,2072.364502 
	C842.072571,2070.552979 843.242004,2068.046631 845.828369,2065.036621 
	C870.181641,2041.388306 893.502869,2018.636108 916.669006,1995.727173 
	C942.725586,1969.960205 969.187378,1944.571777 994.466309,1918.058960 
	C1019.728943,1891.563232 1046.578613,1866.728149 1072.420288,1840.850342 
	C1097.843384,1815.391602 1123.439697,1790.105713 1148.831909,1764.616089 
	C1153.901001,1759.527832 1160.032593,1755.122070 1162.229980,1748.501709 
	C1160.908813,1741.798706 1156.760010,1738.582275 1151.360840,1734.676270 
	C1139.021729,1723.610352 1128.701538,1712.464600 1118.439819,1701.144165 
	C1107.765259,1689.368042 1095.521484,1679.014160 1083.318848,1667.066406 
	C1080.153198,1663.151611 1077.632690,1660.208984 1075.541138,1655.855469 
	C1079.319092,1643.705078 1087.874390,1636.945801 1095.358032,1629.460693 
	C1242.306396,1482.483032 1389.683350,1335.931519 1536.193726,1188.518799 
	C1683.151001,1040.656250 1833.015747,895.687622 1977.125854,744.982971 
	C2006.547119,714.215576 2038.772461,686.150696 2068.926270,656.059387 
	C2276.868408,448.548584 2484.604248,240.831284 2692.403076,33.176701 
	C2697.114746,28.468222 2702.165527,24.028860 2706.360596,18.893950 
	C2710.079102,14.342284 2712.824707,8.995694 2716.000000,3.999976 
	C2756.083496,4.000000 2796.167236,4.000000 2837.852539,5.392337 
	C2837.674316,16.611837 2830.841064,23.087370 2824.233398,29.705862 
	C2810.109375,43.852928 2796.152100,58.172112 2781.809082,72.093773 
	C2746.434326,106.429169 2712.676758,142.352859 2675.743164,175.193924 
	C2650.947754,197.241806 2630.017822,223.577545 2606.583252,247.226532 
	C2548.396729,305.945343 2489.765381,364.223236 2431.313477,422.679016 
	C2317.709229,536.290710 2204.097900,649.895386 2090.525391,763.538452 
	C2084.878174,769.189026 2079.029785,774.768005 2074.226562,781.101868 
	C2066.999756,790.631104 2067.135742,801.071350 2074.069824,810.780396 
	C2077.145508,815.087158 2080.968994,818.905457 2084.727539,822.671692 
	C2122.871582,860.894775 2161.110596,899.022888 2199.226318,937.274048 
	C2207.309570,945.385864 2216.062988,952.421082 2225.746094,958.174683 
	C2220.010498,964.722107 2215.358643,970.359192 2210.234619,975.527954 
	C2172.425781,1013.666199 2134.568115,1051.756348 2096.600342,1089.735962 
	C2090.996826,1095.341187 2084.729980,1100.283325 2077.860107,1104.282349 
	C2070.544189,1092.118408 2063.880615,1081.553467 2054.694336,1072.493896 
	C2018.634644,1036.930786 1982.981323,1000.955566 1947.133057,965.177673 
	C1943.365967,961.417969 1939.579712,957.583618 1935.327026,954.423828 
	C1926.488281,947.856750 1918.095581,947.516663 1909.534790,953.908875 
	C1904.254883,957.851196 1899.586304,962.755188 1895.208862,967.725647 
	C1890.213989,973.397034 1889.952759,980.114014 1894.374023,986.132385 
	C1898.687134,992.003479 1903.621338,997.490845 1908.765259,1002.667175 
	C1938.828857,1032.919922 1969.012695,1063.053223 1999.201294,1093.181519 
	C2012.390625,1106.344604 2024.927979,1120.239624 2041.229858,1129.897583 
	C2043.998413,1131.537842 2045.972900,1134.518677 2047.594238,1137.927002 
	C2042.574219,1144.574341 2038.274048,1150.174805 2032.813721,1156.271484 
	C2024.186523,1163.354248 2016.333618,1169.554932 2009.308472,1176.583008 
	C1687.125366,1498.894043 1365.010498,1821.273193 1042.925415,2143.682129 
	C1036.341675,2150.272461 1030.202148,2157.306641 1022.797607,2164.903320 
	C1013.971436,2172.966797 1006.000977,2180.058350 998.465759,2187.585449 
	C912.640808,2273.317627 826.880981,2359.114746 741.106506,2444.897217 
	C654.860535,2531.150879 568.219666,2617.014160 482.486023,2703.774170 
	C397.249359,2790.031006 309.596069,2873.863525 226.763046,2962.555908 
	C179.953857,3012.676025 130.154404,3060.033447 83.653580,3110.529785 
	C80.060692,3114.431396 76.660133,3118.577637 73.712387,3122.973633 
	C72.456215,3124.847168 72.595749,3127.656738 71.659355,3132.169189 
	C75.890846,3130.565430 78.596786,3130.245850 80.293053,3128.767334 
	C85.810493,3123.958008 91.054779,3118.821045 96.235489,3113.641357 
	C397.900391,2812.029053 699.548401,2510.399902 1001.196411,2208.770752 
	C1004.966980,2205.000488 1009.078247,2201.496338 1012.378418,2197.349121 
	C1016.480164,2192.194824 1019.901978,2186.499512 1024.807007,2180.292480 
	C1034.598877,2172.230957 1043.753052,2165.468018 1051.722656,2157.517334 
	C1221.957886,1987.682617 1392.070190,1817.724365 1562.150635,1647.734131 
	C1568.260010,1641.628174 1573.596802,1634.752686 1579.652832,1628.588745 
	C1596.837891,1611.097290 1614.116455,1593.695068 1631.557007,1576.458862 
	C1637.698608,1570.389282 1644.644775,1565.137451 1650.835693,1559.113525 
	C1697.130615,1514.066650 1742.572144,1468.164917 1788.967285,1423.198975 
	C1871.707153,1343.008057 1952.365601,1260.668213 2033.725098,1179.058105 
	C2039.276489,1173.489624 2043.417603,1166.514893 2049.250488,1159.369385 
	C2069.991455,1139.719849 2089.980957,1121.182007 2109.345947,1102.013428 
	C2156.123779,1055.710815 2202.665283,1009.169006 2249.140381,962.562134 
	C2254.717773,956.969055 2259.293701,950.377502 2265.395752,943.460815 
	C2280.639404,928.826050 2295.329346,915.568359 2307.576172,899.738708 
	C2314.366455,890.962036 2323.557129,884.024109 2331.786621,876.387451 
	C2335.652832,872.799683 2340.039307,869.757446 2343.788330,866.060974 
	C2374.424561,835.853821 2405.022705,805.607422 2435.476074,775.216125 
	C2440.112549,770.588989 2443.942871,765.154480 2449.251221,759.358276 
	C2464.908936,743.177734 2478.992188,727.254089 2494.121826,712.395935 
	C2518.274170,688.677124 2543.234375,665.783813 2567.646729,642.326721 
	C2597.787109,613.365906 2626.609863,583.076233 2656.521240,553.876526 
	C2681.266602,529.719849 2705.618652,505.158081 2729.987793,480.619324 
	C2735.088135,475.483490 2739.498291,469.662415 2745.334473,463.428711 
	C2763.879883,446.307678 2779.379883,428.069672 2795.911133,410.839539 
	C2816.575439,389.301788 2839.345947,369.801849 2860.748779,348.951416 
	C2886.027344,324.325043 2910.955566,299.332947 2935.746094,274.213531 
	C2945.051514,264.784973 2953.479492,254.494949 2962.446533,244.725128 
	C2965.128662,241.802872 2968.217529,239.238678 2971.232422,236.640732 
	C2976.247559,232.319321 2981.693115,228.444977 2986.369629,223.791534 
	C3054.813721,155.682556 3123.187988,87.503181 3191.468750,19.230402 
	C3196.095947,14.603753 3199.843506,9.097370 3204.000000,4.000021 
z"/>
<path fill="#0A0A0B" opacity="1.000000" stroke="none" 
	d="
M6672.000000,2862.155029 
	C6666.946777,2860.925781 6661.553223,2858.285156 6656.935547,2854.656494 
	C6652.250977,2850.974609 6648.322754,2846.327881 6644.081055,2842.085693 
	C5707.540527,1905.548950 4770.997559,969.014160 3834.523682,32.410572 
	C3826.583008,24.468622 3817.000977,17.751112 3812.394531,5.302194 
	C4765.051270,4.000000 5718.103027,4.000000 6672.000000,4.000000 
	C6672.000000,956.103210 6672.000000,1908.206665 6672.000000,2862.155029 
z"/>
<path fill="#0A090B" opacity="1.000000" stroke="none" 
	d="
M4.000000,1600.000000 
	C4.000000,1511.916382 4.000000,1423.832886 5.285096,1333.427490 
	C16.250553,1327.286011 22.598606,1319.320435 29.630663,1312.298462 
	C144.725143,1197.368164 259.779663,1082.397827 374.767517,967.360901 
	C380.869049,961.256775 386.300842,954.483215 393.081238,947.197510 
	C399.900177,940.883728 405.940552,935.638367 411.414398,929.856567 
	C426.017059,914.431885 439.869293,898.264404 454.956329,883.338745 
	C475.244476,863.267761 496.782379,844.461914 517.122375,824.441101 
	C558.806213,783.411316 600.094788,741.979248 641.421204,700.588074 
	C647.025757,694.974731 651.911377,688.643616 658.232544,681.794556 
	C661.326233,679.171143 663.406494,677.487854 665.295471,675.612122 
	C758.485046,583.076172 851.677185,490.542816 944.771423,397.911072 
	C948.969238,393.734100 952.265564,388.651184 957.081665,383.246033 
	C977.066589,363.786163 996.033142,345.237213 1013.730591,325.268219 
	C1029.969849,306.944763 1049.627075,291.700073 1067.067871,274.383362 
	C1152.122437,189.934479 1236.960693,105.267685 1321.785156,20.587460 
	C1326.922852,15.458464 1331.279785,9.547268 1336.000000,4.000012 
	C1456.083618,4.000000 1576.167114,4.000000 1697.678101,5.280887 
	C1692.793457,14.209000 1687.041504,22.412729 1680.082153,29.416716 
	C1616.750610,93.154839 1553.238037,156.713089 1489.722656,220.268280 
	C1312.818970,397.282745 1135.888184,574.270142 958.969055,751.269226 
	C941.559448,768.686707 924.141541,786.095825 906.759949,803.541199 
	C900.652283,809.671265 894.320862,815.669556 890.747620,824.304871 
	C887.439819,824.631348 885.251892,825.071777 881.767334,824.683533 
	C873.465027,817.718567 866.343689,811.708252 859.489014,805.407837 
	C853.603638,799.998352 848.269470,793.974182 842.246948,788.732727 
	C834.311829,781.826660 829.440674,781.966858 821.224243,789.160400 
	C815.716919,793.981934 810.657410,799.321289 805.473389,804.504822 
	C549.055298,1060.899170 292.645325,1317.301880 36.233143,1573.702271 
	C31.519714,1578.415527 27.125145,1583.526489 21.973619,1587.701416 
	C16.352152,1592.257202 10.021514,1595.937866 4.000000,1600.000000 
z"/>
<path fill="#0C0B0C" opacity="1.000000" stroke="none" 
	d="
M4.000000,2876.000000 
	C4.000000,2755.916504 4.000000,2635.832764 5.110410,2513.124023 
	C12.289718,2505.414795 18.766121,2500.741455 24.365385,2495.184326 
	C90.699257,2429.350098 156.926392,2363.408447 223.091904,2297.405029 
	C228.220459,2292.289062 232.675552,2286.498047 238.479095,2280.228271 
	C281.061707,2238.289551 322.667114,2197.202148 364.140961,2155.982422 
	C413.164337,2107.259521 462.106049,2058.454590 510.985535,2009.587524 
	C516.116821,2004.457642 520.589661,1998.669067 526.415710,1992.387085 
	C555.365356,1963.895874 583.314087,1936.250732 611.160828,1908.503418 
	C720.190491,1799.862427 829.175598,1691.176758 938.232727,1582.563477 
	C943.796021,1577.022949 948.735046,1570.616089 956.382263,1566.665771 
	C963.449158,1570.204712 967.977356,1576.037354 973.114563,1581.062622 
	C1008.353638,1615.533447 1043.543457,1650.054565 1079.184937,1685.649658 
	C1098.724365,1705.736206 1117.828003,1724.732788 1136.727051,1745.159912 
	C1133.723633,1756.097534 1125.732788,1761.529175 1119.276733,1768.024292 
	C1031.785400,1856.045288 944.154724,1943.927734 856.637329,2031.922852 
	C849.165771,2039.435303 842.255676,2047.505981 833.918274,2055.921143 
	C827.256714,2061.345215 821.453247,2065.860596 816.325500,2071.044434 
	C802.278503,2085.245361 788.773499,2099.988281 774.566650,2114.023193 
	C760.847839,2127.575928 745.997803,2140.004639 732.568237,2153.824707 
	C702.421753,2184.847656 672.848267,2216.427246 641.847351,2248.318359 
	C635.111755,2253.582031 629.402832,2258.126953 624.075928,2263.082764 
	C618.723938,2268.062012 613.795044,2273.493408 608.606445,2278.651611 
	C583.102295,2304.006836 557.483337,2329.247070 532.109253,2354.731201 
	C524.605530,2362.267334 518.136108,2370.842041 510.550354,2378.286377 
	C492.973358,2395.535889 474.588348,2411.974609 457.283356,2429.485840 
	C424.058228,2463.106445 389.164337,2495.105713 358.297516,2531.040527 
	C353.112427,2537.076904 346.982025,2542.315918 341.164703,2547.791992 
	C329.534485,2558.740479 317.564575,2569.340088 306.191315,2580.547119 
	C282.944885,2603.453369 259.810120,2626.479980 236.984589,2649.804688 
	C213.707001,2673.591309 190.928665,2697.865723 167.777512,2721.777100 
	C159.908676,2729.904297 151.655075,2737.666748 143.423447,2745.432617 
	C134.226517,2754.109131 124.583618,2762.326904 115.609581,2771.223389 
	C85.810104,2800.765137 56.242996,2830.541748 26.541224,2860.182373 
	C19.961975,2866.748047 13.751811,2873.919922 4.000000,2876.000000 
z"/>
<path fill="#080508" opacity="1.000000" stroke="none" 
	d="
M2356.000000,4.000013 
	C2465.416992,4.000000 2574.833740,4.000000 2685.717285,5.298990 
	C2682.660645,17.473862 2673.424805,24.455324 2665.481934,32.407631 
	C2418.796387,279.389130 2172.057129,526.317444 1925.295532,773.223083 
	C1645.568115,1053.113403 1365.811768,1332.974731 1086.062866,1612.843506 
	C1081.353760,1617.554688 1076.575806,1622.197144 1071.835083,1626.876709 
	C1066.427856,1632.214478 1060.131958,1635.623657 1051.590820,1634.789917 
	C1040.160522,1622.954346 1030.526855,1610.885620 1018.638000,1601.752441 
	C999.059509,1586.712158 984.834290,1567.040894 969.953979,1548.263550 
	C977.806335,1541.805176 984.643738,1536.449463 990.809204,1530.408203 
	C1007.949707,1513.612793 1024.808716,1496.530029 1041.782715,1479.564575 
	C1157.300781,1364.105713 1272.857544,1248.685547 1388.251099,1133.102295 
	C1395.711182,1125.630005 1401.915283,1116.903687 1409.710205,1107.892822 
	C1426.673584,1091.961182 1442.942139,1077.212280 1458.529785,1061.775635 
	C1509.094849,1011.700195 1559.452759,961.415039 1609.762451,911.082703 
	C1615.367554,905.474915 1620.150513,899.045471 1626.338379,892.174866 
	C1648.733398,870.442444 1670.235962,849.664673 1691.449829,828.596008 
	C1744.774658,775.636536 1797.997070,722.573608 1851.170898,669.462402 
	C1856.316895,664.322571 1860.837769,658.556885 1866.657959,652.316895 
	C1874.830933,644.266296 1881.994629,636.980652 1889.967529,629.124756 
	C1893.849731,624.417114 1893.433105,621.324524 1887.029541,618.943481 
	C1869.100708,596.308350 1849.924194,576.705566 1828.035400,558.337280 
	C1825.907959,555.229187 1824.314331,553.005676 1823.285767,549.336548 
	C1828.287109,536.256042 1837.585083,528.454834 1846.015015,520.021729 
	C2007.257080,358.719849 2168.531982,197.450851 2329.798584,36.173412 
	C2334.500000,31.471436 2339.601807,27.089294 2343.761475,21.947035 
	C2348.300049,16.336084 2351.958008,10.012808 2356.000000,4.000013 
z"/>
<path fill="#0A0A0B" opacity="1.000000" stroke="none" 
	d="
M2226.610840,957.047424 
	C2216.062988,952.421082 2207.309570,945.385864 2199.226318,937.274048 
	C2161.110596,899.022888 2122.871582,860.894775 2084.727539,822.671692 
	C2080.968994,818.905457 2077.145508,815.087158 2074.069824,810.780396 
	C2067.135742,801.071350 2066.999756,790.631104 2074.226562,781.101868 
	C2079.029785,774.768005 2084.878174,769.189026 2090.525391,763.538452 
	C2204.097900,649.895386 2317.709229,536.290710 2431.313477,422.679016 
	C2489.765381,364.223236 2548.396729,305.945343 2606.583252,247.226532 
	C2630.017822,223.577545 2650.947754,197.241806 2675.743164,175.193924 
	C2712.676758,142.352859 2746.434326,106.429169 2781.809082,72.093773 
	C2796.152100,58.172112 2810.109375,43.852928 2824.233398,29.705862 
	C2830.841064,23.087370 2837.674316,16.611837 2839.727295,5.392337 
	C2949.416992,4.000000 3058.833740,4.000000 3171.577881,4.858230 
	C3173.984863,14.679536 3166.406006,18.825853 3160.976074,24.293142 
	C3099.999756,85.685272 3038.857910,146.912628 2977.753662,208.177811 
	C2968.359863,217.596481 2958.926270,226.975616 2949.520020,236.381927 
	C2902.929932,282.972687 2856.234863,329.459076 2809.798584,376.202423 
	C2784.954346,401.210724 2760.558350,426.663971 2734.717529,452.413452 
	C2696.280029,489.873230 2659.034668,526.785217 2621.904541,563.812988 
	C2585.235352,600.380859 2548.547119,636.931274 2512.127197,673.746521 
	C2487.860840,698.276123 2464.049805,723.256348 2438.843750,748.637878 
	C2432.780273,753.770569 2427.767090,758.158630 2423.058594,762.852417 
	C2385.796631,799.999146 2348.469482,837.082153 2311.422363,874.442505 
	C2292.674561,893.348816 2274.465088,912.788818 2254.864746,932.648682 
	C2244.681641,941.222290 2235.646240,949.134888 2226.610840,957.047424 
z"/>
<path fill="#0C0B0C" opacity="1.000000" stroke="none" 
	d="
M4.000000,1992.000000 
	C4.000000,1903.916382 4.000000,1815.832886 5.363489,1725.655884 
	C12.443578,1719.179199 18.692226,1715.336914 23.789619,1710.323853 
	C54.983337,1679.646606 85.956062,1648.744019 116.888901,1617.802856 
	C121.072609,1613.618042 124.620346,1608.797241 129.543961,1603.518311 
	C132.582092,1600.958252 134.626923,1599.236206 136.481598,1597.329346 
	C151.772202,1581.607788 167.517456,1566.412354 181.906738,1549.713867 
	C195.263290,1534.214111 212.139420,1521.802246 226.856934,1507.408203 
	C256.383148,1478.530884 285.609802,1449.343750 314.706390,1420.032715 
	C323.577484,1411.096313 331.447052,1401.173828 340.105865,1392.015381 
	C345.110107,1386.722412 350.717194,1381.989380 356.162262,1377.126587 
	C359.620972,1374.037964 363.524963,1371.421143 366.809998,1368.169189 
	C389.060394,1346.142822 411.238190,1324.042480 433.325043,1301.851929 
	C436.095825,1299.068237 438.196655,1295.617554 441.693237,1291.720337 
	C456.034027,1277.847168 469.327911,1264.767944 482.517822,1251.584473 
	C485.800537,1248.303345 488.718384,1244.659546 491.853790,1241.228027 
	C499.450836,1232.913818 506.070862,1223.282715 514.930481,1216.646484 
	C527.832092,1206.982788 538.754395,1195.473999 550.076599,1184.297485 
	C578.518677,1156.221680 606.852966,1128.034546 634.993774,1099.657227 
	C646.660461,1087.892578 659.629211,1077.315308 668.732666,1063.106445 
	C670.829651,1059.833374 674.248230,1057.351685 677.250244,1054.724976 
	C684.220703,1048.626099 691.728638,1043.084473 698.282288,1036.575684 
	C755.940369,979.311646 813.414124,921.862122 871.021545,864.546875 
	C876.083374,859.510620 880.438965,853.445679 888.131897,850.179810 
	C891.865479,853.339600 895.593994,856.030457 898.766846,859.266235 
	C909.004211,869.706238 918.763245,880.626221 929.203247,890.854370 
	C953.920410,915.069885 978.975647,938.939819 1003.765015,963.082214 
	C1008.499695,967.693176 1012.641296,972.913086 1016.528687,979.268127 
	C1011.459290,992.318848 1001.970581,999.994507 993.529907,1008.436035 
	C673.039490,1328.960938 352.510468,1649.447266 31.983843,1969.935913 
	C28.213135,1973.706299 24.720629,1977.846558 20.535841,1981.088135 
	C15.330086,1985.120605 9.538559,1988.397095 4.000000,1992.000000 
z"/>
<path fill="#0C0B0C" opacity="1.000000" stroke="none" 
	d="
M548.000000,4.000000 
	C669.416931,4.000000 790.833801,4.000000 913.761719,5.309029 
	C909.560852,13.043922 904.147583,19.767042 898.091919,25.850698 
	C818.907471,105.400291 739.620239,184.847473 660.395081,264.356445 
	C650.559692,274.227081 640.932922,284.305542 630.167114,294.741241 
	C628.412048,295.452789 627.699402,295.710754 625.793884,295.450134 
	C618.898071,290.410828 612.946777,286.165161 607.556458,281.298218 
	C601.143433,275.507751 595.393555,268.986664 589.033508,263.132782 
	C576.570129,251.661224 571.476990,251.798599 558.597656,263.692322 
	C553.712524,268.203613 549.112427,273.024841 544.407104,277.729492 
	C375.011871,447.099792 205.619705,616.473206 36.225414,785.844482 
	C31.520052,790.549255 27.139912,795.661926 21.987911,799.815002 
	C16.369097,804.344543 10.026881,807.976685 3.999999,812.000000 
	C4.000000,725.249756 4.000000,638.499512 5.305797,549.482422 
	C11.293918,543.596985 16.408995,540.416504 20.588921,536.289062 
	C49.447453,507.793091 78.146515,479.135010 106.787842,450.420349 
	C110.025284,447.174591 112.583954,443.251801 116.533051,438.847900 
	C134.088211,421.702759 150.747406,405.529297 167.013977,388.970093 
	C219.228043,335.816803 273.658508,284.875458 324.343658,230.179504 
	C341.925110,211.206818 361.948608,194.521149 380.351654,176.281296 
	C431.414856,125.670883 482.215759,74.795776 533.109070,24.013985 
	C537.349060,19.783285 541.742798,15.667704 545.580017,11.091827 
	C547.076965,9.306723 547.233154,6.397308 548.000000,4.000000 
z"/>
<path fill="#080508" opacity="1.000000" stroke="none" 
	d="
M1868.000000,3.999984 
	C1977.416870,4.000000 2086.833740,4.000000 2198.323975,5.418976 
	C2198.166016,15.851236 2190.708008,20.890720 2184.736328,26.915504 
	C2133.363770,78.745308 2081.776855,130.362762 2030.424194,182.212006 
	C2013.158325,199.644638 1996.381836,217.561951 1978.193848,235.868317 
	C1972.930908,239.893005 1968.529785,242.988190 1964.831543,246.770844 
	C1930.855591,281.522919 1897.001465,316.394135 1861.946411,351.852295 
	C1853.429321,359.182831 1845.761108,365.579437 1838.781616,372.655548 
	C1811.175781,400.643982 1783.781494,428.841278 1756.319214,456.971344 
	C1751.072388,462.345703 1745.158447,466.463867 1736.191406,466.746429 
	C1717.004639,443.631989 1698.669312,425.587860 1685.821533,417.964294 
	C1682.714844,420.087738 1679.473755,422.303101 1675.720459,423.221008 
	C1666.877319,405.412415 1652.468872,394.346191 1639.193848,382.387207 
	C1633.258179,377.040070 1627.195557,377.276001 1620.989746,382.245026 
	C1614.783447,387.214478 1609.131958,392.914276 1603.493896,398.550446 
	C1423.741577,578.241150 1244.020630,757.963379 1064.292725,937.678345 
	C1059.587891,942.382751 1054.832764,947.037231 1050.139404,951.752991 
	C1044.428345,957.491028 1038.021240,962.129944 1029.072754,964.049438 
	C1008.843628,943.831482 989.761597,924.185974 971.847168,903.741638 
	C980.876465,895.768738 989.037720,888.894287 996.556885,881.377502 
	C1279.264771,598.756409 1561.913818,316.076355 1844.567993,33.401386 
	C1848.807617,29.161388 1853.425049,25.212297 1857.119873,20.537556 
	C1861.196045,15.380340 1864.410278,9.541790 1868.000000,3.999984 
z"/>
<path fill="#0C0B0C" opacity="1.000000" stroke="none" 
	d="
M3.999994,1208.000000 
	C4.000000,1119.916382 4.000000,1031.832886 5.341710,941.582153 
	C11.388606,935.848938 16.557741,932.753113 20.724813,928.641724 
	C50.995255,898.775940 81.100334,868.742065 111.142929,838.646790 
	C114.371460,835.412720 116.865143,831.445129 120.811508,827.068726 
	C135.577759,812.803711 149.404938,799.457214 162.856888,785.742737 
	C223.403625,724.014221 286.825714,665.152710 345.427612,601.463379 
	C363.816528,581.477966 385.270172,564.348450 404.403137,545.003967 
	C440.858154,508.145935 478.241028,472.246552 513.511475,434.146545 
	C543.708069,401.527435 577.191223,371.951782 609.197998,341.006348 
	C613.983154,336.379852 618.523010,331.493896 623.407410,326.977814 
	C626.203064,324.392944 629.464783,322.312103 633.259399,319.442688 
	C639.179138,325.166534 644.487366,330.122559 649.597290,335.275208 
	C661.773376,347.552979 673.726746,360.053589 686.002625,372.229736 
	C711.980042,397.996277 738.106079,423.612976 763.624573,450.463287 
	C756.604187,459.178558 750.595764,467.186676 743.589417,474.197479 
	C505.960480,711.977844 268.236938,949.663635 30.524378,1187.360352 
	C27.229450,1190.655029 24.196018,1194.306641 20.513086,1197.094971 
	C15.265007,1201.068481 9.528068,1204.396362 3.999994,1208.000000 
z"/>
<path fill="#010000" opacity="1.000000" stroke="none" 
	d="
M1030.219849,964.622009 
	C1038.021240,962.129944 1044.428345,957.491028 1050.139404,951.752991 
	C1054.832764,947.037231 1059.587891,942.382751 1064.292725,937.678345 
	C1244.020630,757.963379 1423.741577,578.241150 1603.493896,398.550446 
	C1609.131958,392.914276 1614.783447,387.214478 1620.989746,382.245026 
	C1627.195557,377.276001 1633.258179,377.040070 1639.193848,382.387207 
	C1652.468872,394.346191 1666.877319,405.412415 1675.101074,424.389526 
	C1615.332153,486.773254 1555.680420,546.700623 1496.005981,606.605408 
	C1456.520874,646.243042 1417.048218,685.893555 1377.472290,725.440369 
	C1365.705566,737.198425 1353.407349,748.426697 1341.697144,760.239258 
	C1302.320190,799.960571 1263.087280,839.824951 1223.820679,879.655579 
	C1190.660034,913.292480 1157.529175,946.958618 1123.136963,981.089233 
	C1119.397583,983.771118 1116.789795,985.858032 1114.432739,988.197388 
	C1073.775269,1028.550415 1033.025757,1068.811646 992.562195,1109.358276 
	C968.570557,1133.399048 945.029846,1157.890137 921.323547,1182.215088 
	C919.473572,1184.113281 917.917603,1186.298218 915.042297,1188.953857 
	C908.540466,1194.579590 903.106445,1199.485718 897.920227,1204.641357 
	C856.381226,1245.935547 814.690430,1287.079834 773.455322,1328.675781 
	C747.694946,1354.661743 722.643494,1381.350464 696.222900,1408.251709 
	C690.259338,1413.209351 685.129456,1417.422607 680.466736,1422.101318 
	C617.302368,1485.483887 554.167969,1548.896484 491.143280,1612.417847 
	C485.098206,1618.510620 479.836731,1625.380859 473.052063,1632.397949 
	C464.457550,1639.503540 456.658386,1645.737305 449.640930,1652.753052 
	C310.879395,1791.484009 172.208923,1930.306030 33.517025,2069.106445 
	C29.285816,2073.340820 25.038403,2077.559570 20.769794,2081.756348 
	C15.977894,2086.467529 10.853241,2090.654053 4.000000,2092.000000 
	C4.000000,2059.916504 4.000000,2027.832764 4.000000,1993.874512 
	C9.538559,1988.397095 15.330086,1985.120605 20.535841,1981.088135 
	C24.720629,1977.846558 28.213135,1973.706299 31.983843,1969.935913 
	C352.510468,1649.447266 673.039490,1328.960938 993.529907,1008.436035 
	C1001.970581,999.994507 1011.459290,992.318848 1017.730347,979.379028 
	C1026.722168,976.529907 1030.894653,972.514648 1030.219849,964.622009 
z"/>
<path fill="#010000" opacity="1.000000" stroke="none" 
	d="
M3.999994,1209.874512 
	C9.528068,1204.396362 15.265007,1201.068481 20.513086,1197.094971 
	C24.196018,1194.306641 27.229450,1190.655029 30.524378,1187.360352 
	C268.236938,949.663635 505.960480,711.977844 743.589417,474.197479 
	C750.595764,467.186676 756.604187,459.178558 764.875793,449.948761 
	C772.110779,444.602631 777.291077,440.831238 774.858276,432.703796 
	C788.268921,430.019440 796.160217,421.804169 804.202637,413.760620 
	C932.861572,285.084625 1061.534668,156.422913 1190.201660,27.754955 
	C1192.557983,25.398573 1195.225830,23.254684 1197.141968,20.577696 
	C1200.983521,15.210878 1204.405151,9.543395 1208.000000,4.000010 
	C1240.083618,4.000000 1272.167236,4.000000 1306.145996,5.389245 
	C1303.810913,11.847787 1299.889038,17.217880 1295.292969,21.930220 
	C1281.346191,36.229790 1267.151367,50.287868 1253.030151,64.417015 
	C1177.718628,139.771118 1102.315796,215.034134 1027.126465,290.510071 
	C998.000977,319.746735 969.353455,349.459717 939.416870,379.495850 
	C933.967468,384.100372 929.446960,388.022797 925.232300,392.250031 
	C836.540100,481.207458 747.870911,570.187927 659.246643,659.213013 
	C654.099609,664.383301 649.370667,669.969666 643.425659,675.890503 
	C637.973511,680.407104 633.345764,684.199097 629.141296,688.413391 
	C549.476440,768.264160 469.825806,848.129211 390.307739,928.126099 
	C384.273438,934.196655 379.254761,941.276733 372.586121,948.311768 
	C364.430115,954.833679 357.070770,960.549988 350.530731,967.086060 
	C244.704178,1072.847168 138.982224,1178.713013 33.234005,1284.552490 
	C29.004122,1288.786011 25.072397,1293.400757 20.418125,1297.104370 
	C15.297684,1301.178955 9.501712,1304.404541 4.000005,1308.000000 
	C4.000000,1275.916382 4.000000,1243.832764 3.999994,1209.874512 
z"/>
<path fill="#010000" opacity="1.000000" stroke="none" 
	d="
M1866.125366,3.999984 
	C1864.410278,9.541790 1861.196045,15.380340 1857.119873,20.537556 
	C1853.425049,25.212297 1848.807617,29.161388 1844.567993,33.401386 
	C1561.913818,316.076355 1279.264771,598.756409 996.556885,881.377502 
	C989.037720,888.894287 980.876465,895.768738 970.689819,903.135315 
	C962.456726,898.293335 956.065247,893.719849 950.735046,888.133728 
	C937.283813,874.036560 924.310303,859.483459 911.628418,843.743042 
	C916.427307,836.523438 920.350464,830.325012 925.157227,824.911194 
	C931.341614,817.945862 938.223999,811.598999 944.823914,805.003906 
	C1203.635742,546.381653 1462.460693,287.772552 1721.212769,29.090408 
	C1729.193359,21.111860 1736.421143,12.380421 1744.000000,4.000001 
	C1784.083618,4.000000 1824.167114,4.000000 1866.125366,3.999984 
z"/>
<path fill="#010000" opacity="1.000000" stroke="none" 
	d="
M284.000000,3.999998 
	C361.416901,4.000000 438.833832,4.000000 519.450806,4.948246 
	C521.037964,13.772461 514.267212,17.685808 509.231537,22.740793 
	C382.832733,149.623657 256.306458,276.379578 129.847931,403.202972 
	C119.514404,413.566376 109.504280,424.252228 98.241699,435.189148 
	C72.278595,460.233856 47.436806,484.897003 22.542126,509.506683 
	C16.935995,515.048645 11.907980,521.381409 4.000000,524.000000 
	C4.000000,443.916412 4.000000,363.832855 5.249480,281.352661 
	C13.674640,273.125641 21.420860,267.868195 27.939199,261.377625 
	C107.581093,182.074371 187.061646,102.609009 266.514069,23.115744 
	C272.612823,17.013830 278.183746,10.384290 284.000000,3.999998 
z"/>
<path fill="#080508" opacity="1.000000" stroke="none" 
	d="
M1206.125366,4.000010 
	C1204.405151,9.543395 1200.983521,15.210878 1197.141968,20.577696 
	C1195.225830,23.254684 1192.557983,25.398573 1190.201660,27.754955 
	C1061.534668,156.422913 932.861572,285.084625 804.202637,413.760620 
	C796.160217,421.804169 788.268921,430.019440 773.738647,432.123840 
	C752.329346,413.121185 733.622131,394.318176 714.853943,375.576233 
	C710.640869,371.368958 706.230408,367.358368 701.883118,363.286682 
	C693.690430,355.613342 685.146484,348.281525 677.355713,340.220856 
	C667.260803,329.776337 657.759644,318.757996 648.174622,306.606140 
	C651.052490,295.635895 659.137146,290.265625 665.616516,283.794769 
	C752.626709,196.898972 839.787659,110.154076 926.822754,23.283134 
	C932.904907,17.212496 938.290527,10.443986 944.000000,3.999996 
	C1030.750244,4.000000 1117.500488,4.000000 1206.125366,4.000010 
z"/>
<path fill="#010000" opacity="1.000000" stroke="none" 
	d="
M4.000010,2484.000000 
	C4.000000,2451.916260 4.000000,2419.832764 5.262479,2385.373535 
	C16.153576,2379.160645 22.608967,2371.351807 29.635569,2364.327637 
	C220.211777,2173.809570 410.765625,1983.269409 601.262573,1792.672241 
	C607.829590,1786.101685 613.773193,1778.908081 621.073853,1771.213379 
	C628.934875,1764.091064 635.926819,1757.957764 642.493958,1751.399170 
	C720.008728,1673.983887 797.458740,1596.503784 874.931213,1519.046387 
	C879.156738,1514.821777 883.271057,1510.467285 887.715698,1506.484009 
	C897.681763,1497.552124 902.441345,1497.037109 911.588501,1506.022339 
	C924.349976,1518.557617 936.289551,1531.929688 947.930420,1546.087280 
	C942.172363,1552.478149 937.145996,1557.807617 931.944153,1562.959717 
	C888.444092,1606.046143 844.778137,1648.966064 801.446411,1692.220947 
	C780.264587,1713.365356 759.890076,1735.316772 738.798157,1756.553467 
	C676.443726,1819.336060 613.894165,1881.924927 551.468933,1944.637329 
	C538.321838,1957.844849 525.378540,1971.255127 511.145691,1985.140869 
	C491.252319,2003.669556 472.393066,2021.464966 453.922028,2039.654907 
	C443.985046,2049.440430 434.984772,2060.174316 425.093445,2070.009521 
	C392.080597,2102.835693 358.605774,2135.199951 325.782776,2168.213623 
	C292.491577,2201.698242 259.761749,2235.741211 226.801422,2269.554443 
	C225.877945,2270.502197 225.130783,2271.621826 223.154449,2273.302734 
	C215.778671,2279.897949 209.422592,2285.725098 203.340561,2291.825439 
	C145.279938,2350.061279 87.271957,2408.349365 29.225773,2466.599609 
	C24.545958,2471.295898 20.034502,2476.269531 14.786770,2480.246094 
	C11.900486,2482.433350 7.640600,2482.808105 4.000010,2484.000000 
z"/>
<path fill="#010000" opacity="1.000000" stroke="none" 
	d="
M4.000000,1601.874512 
	C10.021514,1595.937866 16.352152,1592.257202 21.973619,1587.701416 
	C27.125145,1583.526489 31.519714,1578.415527 36.233143,1573.702271 
	C292.645325,1317.301880 549.055298,1060.899170 805.473389,804.504822 
	C810.657410,799.321289 815.716919,793.981934 821.224243,789.160400 
	C829.440674,781.966858 834.311829,781.826660 842.246948,788.732727 
	C848.269470,793.974182 853.603638,799.998352 859.489014,805.407837 
	C866.343689,811.708252 873.465027,817.718567 880.981934,825.833313 
	C876.381897,833.057861 871.322815,838.355957 866.151672,843.542358 
	C758.469849,951.542358 650.777588,1059.531860 543.079590,1167.515869 
	C531.791687,1178.833618 520.380859,1190.029785 509.156372,1201.410034 
	C482.055023,1228.887573 455.030243,1256.440796 426.741028,1284.484375 
	C391.050781,1319.229126 356.533661,1353.392578 322.153046,1387.692871 
	C282.110535,1427.641724 242.100967,1467.624390 202.241028,1507.755249 
	C173.639328,1536.551636 145.297577,1565.606323 116.883026,1594.588257 
	C115.505501,1595.993164 114.544273,1597.806396 112.223846,1599.877686 
	C105.698021,1605.258789 100.158134,1610.011963 95.007751,1615.155151 
	C70.582634,1639.546021 46.316349,1664.095947 21.863890,1688.459106 
	C16.787266,1693.517212 12.301468,1699.800171 4.000000,1700.000000 
	C4.000000,1667.916382 4.000000,1635.832764 4.000000,1601.874512 
z"/>
<path fill="#010000" opacity="1.000000" stroke="none" 
	d="
M2354.125488,4.000013 
	C2351.958008,10.012808 2348.300049,16.336084 2343.761475,21.947035 
	C2339.601807,27.089294 2334.500000,31.471436 2329.798584,36.173412 
	C2168.531982,197.450851 2007.257080,358.719849 1846.015015,520.021729 
	C1837.585083,528.454834 1828.287109,536.256042 1821.830811,549.233765 
	C1803.037354,533.182556 1786.198486,515.850891 1769.528076,498.358704 
	C1764.122559,492.686523 1759.158203,486.593781 1755.256104,479.961487 
	C1760.559326,475.818939 1764.854736,472.666656 1768.597168,468.956451 
	C1796.797729,440.997986 1824.949219,412.989014 1852.950439,384.831268 
	C1857.104492,380.654053 1860.391113,375.614288 1865.251099,370.114594 
	C1871.016846,364.462891 1875.602661,359.662598 1880.206299,354.879608 
	C1884.356079,350.568329 1888.421753,346.169769 1892.702881,341.992462 
	C1922.246826,313.164368 1951.849487,284.396515 1981.375732,255.550262 
	C1982.770752,254.187347 1983.620239,252.266190 1985.837646,249.742310 
	C1990.837524,245.255234 1994.826782,241.734772 1998.594360,237.991287 
	C2071.177734,165.874527 2143.740234,93.736481 2216.281982,21.577850 
	C2219.574219,18.303259 2222.934814,15.016809 2225.674805,11.301677 
	C2227.110596,9.355021 2227.266113,6.464271 2228.000000,3.999973 
	C2269.416992,4.000000 2310.833740,4.000000 2354.125488,4.000013 
z"/>
<path fill="#010000" opacity="1.000000" stroke="none" 
	d="
M3.999999,813.874634 
	C10.026881,807.976685 16.369097,804.344543 21.987911,799.815002 
	C27.139912,795.661926 31.520052,790.549255 36.225414,785.844482 
	C205.619705,616.473206 375.011871,447.099792 544.407104,277.729492 
	C549.112427,273.024841 553.712524,268.203613 558.597656,263.692322 
	C571.476990,251.798599 576.570129,251.661224 589.033508,263.132782 
	C595.393555,268.986664 601.143433,275.507751 607.556458,281.298218 
	C612.946777,286.165161 618.898071,290.410828 625.228638,296.597595 
	C594.337280,329.882355 562.817200,361.499969 531.299622,393.119995 
	C397.216888,527.638794 263.109680,662.133240 129.112534,796.737305 
	C120.714226,805.173645 113.179176,814.469482 103.980804,823.504883 
	C97.306419,828.545471 91.685951,833.237915 86.517151,838.384033 
	C64.791420,860.014343 43.248966,881.828735 21.525185,903.460999 
	C16.403717,908.561035 11.970268,914.805115 4.000000,916.000000 
	C4.000000,882.583069 4.000000,849.166138 3.999999,813.874634 
z"/>
<path fill="#060407" opacity="1.000000" stroke="none" 
	d="
M620.007324,1772.004883 
	C613.773193,1778.908081 607.829590,1786.101685 601.262573,1792.672241 
	C410.765625,1983.269409 220.211777,2173.809570 29.635569,2364.327637 
	C22.608967,2371.351807 16.153576,2379.160645 5.262479,2383.499023 
	C4.000000,2295.916504 4.000000,2207.832764 5.293499,2117.443359 
	C13.318651,2109.910889 20.653605,2105.296875 26.681463,2099.356445 
	C59.186146,2067.322998 91.313202,2034.906860 123.703285,2002.756470 
	C130.257843,1996.250366 137.383835,1990.320068 145.483185,1984.612793 
	C153.484253,1990.403198 160.825790,1995.117920 166.913712,2001.107056 
	C194.934616,2028.672607 222.591400,2056.608154 250.417114,2084.372314 
	C254.658096,2088.604004 258.843658,2092.954834 263.507385,2096.684570 
	C271.329254,2102.939453 277.059357,2102.876221 285.006195,2096.259033 
	C290.621124,2091.583740 295.705444,2086.254395 300.885651,2081.075928 
	C395.594360,1986.401245 490.280518,1891.704102 584.976379,1797.016479 
	C589.687439,1792.305908 594.474670,1787.671265 599.168396,1782.943604 
	C604.973328,1777.096558 611.743103,1773.140747 620.007324,1772.004883 
z"/>
<path fill="#310203" opacity="1.000000" stroke="none" 
	d="
M1052.374390,1635.875488 
	C1060.131958,1635.623657 1066.427856,1632.214478 1071.835083,1626.876709 
	C1076.575806,1622.197144 1081.353760,1617.554688 1086.062866,1612.843506 
	C1365.811768,1332.974731 1645.568115,1053.113403 1925.295532,773.223083 
	C2172.057129,526.317444 2418.796387,279.389130 2665.481934,32.407631 
	C2673.424805,24.455324 2682.660645,17.473862 2687.592041,5.298990 
	C2696.166748,4.000000 2704.333252,4.000000 2714.250000,3.999976 
	C2712.824707,8.995694 2710.079102,14.342284 2706.360596,18.893950 
	C2702.165527,24.028860 2697.114746,28.468222 2692.403076,33.176701 
	C2484.604248,240.831284 2276.868408,448.548584 2068.926270,656.059387 
	C2038.772461,686.150696 2006.547119,714.215576 1977.125854,744.982971 
	C1833.015747,895.687622 1683.151001,1040.656250 1536.193726,1188.518799 
	C1389.683350,1335.931519 1242.306396,1482.483032 1095.358032,1629.460693 
	C1087.874390,1636.945801 1079.319092,1643.705078 1074.324219,1655.304688 
	C1064.751221,1650.561523 1056.431763,1645.351074 1052.374390,1635.875488 
z"/>
<path fill="#310203" opacity="1.000000" stroke="none" 
	d="
M1742.167725,4.000001 
	C1736.421143,12.380421 1729.193359,21.111860 1721.212769,29.090408 
	C1462.460693,287.772552 1203.635742,546.381653 944.823914,805.003906 
	C938.223999,811.598999 931.341614,817.945862 925.157227,824.911194 
	C920.350464,830.325012 916.427307,836.523438 910.510071,843.077332 
	C903.228271,837.327332 897.547913,830.873108 891.867554,824.418823 
	C894.320862,815.669556 900.652283,809.671265 906.759949,803.541199 
	C924.141541,786.095825 941.559448,768.686707 958.969055,751.269226 
	C1135.888184,574.270142 1312.818970,397.282745 1489.722656,220.268280 
	C1553.238037,156.713089 1616.750610,93.154839 1680.082153,29.416716 
	C1687.041504,22.412729 1692.793457,14.209000 1699.552734,5.280887 
	C1713.445190,4.000000 1726.890259,4.000000 1742.167725,4.000001 
z"/>
<path fill="#0C0B0C" opacity="1.000000" stroke="none" 
	d="
M4.000000,4170.000000 
	C2216.141846,4167.993652 4428.283691,4167.987305 6640.425781,4167.981445 
	C6649.756836,4167.980957 6659.087891,4167.984863 6670.209473,4167.993164 
	C6672.000000,4169.333496 6672.520508,4171.187012 6671.853516,4171.853516 
	C6671.186523,4172.520020 6669.333496,4172.000000 6668.000000,4172.000000 
	C6663.333496,4172.000000 6658.666504,4172.000000 6654.000000,4172.000000 
	C4437.333496,4172.000000 2220.666748,4172.000000 4.000000,4170.000000 
z"/>
<path fill="#080508" opacity="1.000000" stroke="none" 
	d="
M4.000000,256.000000 
	C4.000000,223.916397 4.000000,191.832809 5.250987,157.353973 
	C12.268760,150.549973 18.600330,146.710846 23.712675,141.642014 
	C63.370281,102.321960 102.801102,62.773087 142.278183,23.271118 
	C147.919937,17.625807 153.680222,12.027771 156.000000,4.000000 
	C188.083603,4.000000 220.167191,4.000000 253.730560,5.305876 
	C250.866226,12.419991 247.149551,18.852728 242.083618,23.942539 
	C169.357529,97.011482 96.451889,169.901718 23.581060,242.826569 
	C17.920740,248.491089 12.213683,254.116608 4.000000,256.000000 
z"/>
<path fill="#310203" opacity="1.000000" stroke="none" 
	d="
M4.000000,2877.750000 
	C13.751811,2873.919922 19.961975,2866.748047 26.541224,2860.182373 
	C56.242996,2830.541748 85.810104,2800.765137 115.609581,2771.223389 
	C124.583618,2762.326904 134.226517,2754.109131 143.423447,2745.432617 
	C151.655075,2737.666748 159.908676,2729.904297 167.777512,2721.777100 
	C190.928665,2697.865723 213.707001,2673.591309 236.984589,2649.804688 
	C259.810120,2626.479980 282.944885,2603.453369 306.191315,2580.547119 
	C317.564575,2569.340088 329.534485,2558.740479 341.164703,2547.791992 
	C346.982025,2542.315918 353.112427,2537.076904 358.297516,2531.040527 
	C389.164337,2495.105713 424.058228,2463.106445 457.283356,2429.485840 
	C474.588348,2411.974609 492.973358,2395.535889 510.550354,2378.286377 
	C518.136108,2370.842041 524.605530,2362.267334 532.109253,2354.731201 
	C557.483337,2329.247070 583.102295,2304.006836 608.606445,2278.651611 
	C613.795044,2273.493408 618.723938,2268.062012 624.075928,2263.082764 
	C629.402832,2258.126953 635.111755,2253.582031 643.212646,2248.755615 
	C650.307373,2249.626709 654.842590,2250.598633 659.377686,2251.570801 
	C654.229614,2257.642334 649.484985,2264.117188 643.875305,2269.727295 
	C438.163544,2475.453369 232.388580,2681.116455 26.507114,2886.672607 
	C20.458578,2892.711670 13.174105,2897.512939 5.232972,2903.445801 
	C4.000000,2895.833252 4.000000,2887.666748 4.000000,2877.750000 
z"/>
<path fill="#C50302" opacity="1.000000" stroke="none" 
	d="
M2735.960205,451.916443 
	C2760.558350,426.663971 2784.954346,401.210724 2809.798584,376.202423 
	C2856.234863,329.459076 2902.929932,282.972687 2949.520020,236.381927 
	C2958.926270,226.975616 2968.359863,217.596481 2977.753662,208.177811 
	C3038.857910,146.912628 3099.999756,85.685272 3160.976074,24.293142 
	C3166.406006,18.825853 3173.984863,14.679536 3173.452637,4.858230 
	C3181.482178,4.000000 3190.964600,4.000000 3202.223389,4.000021 
	C3199.843506,9.097370 3196.095947,14.603753 3191.468750,19.230402 
	C3123.187988,87.503181 3054.813721,155.682556 2986.369629,223.791534 
	C2981.693115,228.444977 2976.247559,232.319321 2971.232422,236.640732 
	C2968.217529,239.238678 2965.128662,241.802872 2962.446533,244.725128 
	C2953.479492,254.494949 2945.051514,264.784973 2935.746094,274.213531 
	C2910.955566,299.332947 2886.027344,324.325043 2860.748779,348.951416 
	C2839.345947,369.801849 2816.575439,389.301788 2795.911133,410.839539 
	C2779.379883,428.069672 2763.879883,446.307678 2744.391113,462.603882 
	C2740.213379,458.977173 2738.086914,455.446808 2735.960205,451.916443 
z"/>
<path fill="#310203" opacity="1.000000" stroke="none" 
	d="
M144.246307,1984.124146 
	C137.383835,1990.320068 130.257843,1996.250366 123.703285,2002.756470 
	C91.313202,2034.906860 59.186146,2067.322998 26.681463,2099.356445 
	C20.653605,2105.296875 13.318651,2109.910889 5.293499,2115.568604 
	C4.000000,2109.142578 4.000000,2102.285156 4.000000,2093.713867 
	C10.853241,2090.654053 15.977894,2086.467529 20.769794,2081.756348 
	C25.038403,2077.559570 29.285816,2073.340820 33.517025,2069.106445 
	C172.208923,1930.306030 310.879395,1791.484009 449.640930,1652.753052 
	C456.658386,1645.737305 464.457550,1639.503540 474.894897,1632.395020 
	C482.689117,1632.028076 487.481110,1632.171509 491.535004,1633.415039 
	C484.447357,1641.302002 478.288696,1648.279785 471.719696,1654.847046 
	C369.276184,1757.267334 266.759308,1859.614136 164.340164,1962.058716 
	C157.314423,1969.086182 150.929306,1976.754028 144.246307,1984.124146 
z"/>
<path fill="#C50302" opacity="1.000000" stroke="none" 
	d="
M99.343872,434.788239 
	C109.504280,424.252228 119.514404,413.566376 129.847931,403.202972 
	C256.306458,276.379578 382.832733,149.623657 509.231537,22.740793 
	C514.267212,17.685808 521.037964,13.772461 521.325439,4.948246 
	C528.166687,4.000000 536.333313,4.000000 546.250000,4.000000 
	C547.233154,6.397308 547.076965,9.306723 545.580017,11.091827 
	C541.742798,15.667704 537.349060,19.783285 533.109070,24.013985 
	C482.215759,74.795776 431.414856,125.670883 380.351654,176.281296 
	C361.948608,194.521149 341.925110,211.206818 324.343658,230.179504 
	C273.658508,284.875458 219.228043,335.816803 167.013977,388.970093 
	C150.747406,405.529297 134.088211,421.702759 114.922295,438.362885 
	C107.938538,437.378052 103.641205,436.083160 99.343872,434.788239 
z"/>
<path fill="#8D0201" opacity="1.000000" stroke="none" 
	d="
M940.488159,378.955688 
	C969.353455,349.459717 998.000977,319.746735 1027.126465,290.510071 
	C1102.315796,215.034134 1177.718628,139.771118 1253.030151,64.417015 
	C1267.151367,50.287868 1281.346191,36.229790 1295.292969,21.930220 
	C1299.889038,17.217880 1303.810913,11.847787 1308.020508,5.389245 
	C1316.166626,4.000000 1324.333374,4.000000 1334.250000,4.000012 
	C1331.279785,9.547268 1326.922852,15.458464 1321.785156,20.587460 
	C1236.960693,105.267685 1152.122437,189.934479 1067.067871,274.383362 
	C1049.627075,291.700073 1029.969849,306.944763 1013.730591,325.268219 
	C996.033142,345.237213 977.066589,363.786163 955.534058,382.751648 
	C948.753662,381.652863 944.620911,380.304260 940.488159,378.955688 
z"/>
<path fill="#310203" opacity="1.000000" stroke="none" 
	d="
M4.000005,1309.713867 
	C9.501712,1304.404541 15.297684,1301.178955 20.418125,1297.104370 
	C25.072397,1293.400757 29.004122,1288.786011 33.234005,1284.552490 
	C138.982224,1178.713013 244.704178,1072.847168 350.530731,967.086060 
	C357.070770,960.549988 364.430115,954.833679 374.420715,948.322876 
	C382.303558,947.946899 387.173981,947.984070 392.044373,948.021240 
	C386.300842,954.483215 380.869049,961.256775 374.767517,967.360901 
	C259.779663,1082.397827 144.725143,1197.368164 29.630663,1312.298462 
	C22.598606,1319.320435 16.250553,1327.286011 5.285096,1331.552856 
	C4.000000,1325.142578 4.000000,1318.285156 4.000005,1309.713867 
z"/>
<path fill="#0C0B0C" opacity="1.000000" stroke="none" 
	d="
M4.000000,128.000000 
	C4.000000,86.960587 4.000000,45.921173 4.000000,4.000000 
	C44.079269,4.000000 84.165009,4.000000 125.735680,5.308611 
	C123.393333,11.917900 120.179756,17.824665 115.639854,22.421566 
	C84.584717,53.866623 53.254299,85.039848 22.004396,116.292480 
	C16.834333,121.462990 11.380776,126.219025 4.000000,128.000000 
z"/>
<path fill="#6D0202" opacity="1.000000" stroke="none" 
	d="
M942.250000,3.999996 
	C938.290527,10.443986 932.904907,17.212496 926.822754,23.283134 
	C839.787659,110.154076 752.626709,196.898972 665.616516,283.794769 
	C659.137146,290.265625 651.052490,295.635895 647.042603,305.864441 
	C640.895752,302.431396 636.052612,298.359558 631.209534,294.287720 
	C640.932922,284.305542 650.559692,274.227081 660.395081,264.356445 
	C739.620239,184.847473 818.907471,105.400291 898.091919,25.850698 
	C904.147583,19.767042 909.560852,13.043922 915.636353,5.309029 
	C924.166687,4.000000 932.333313,4.000000 942.250000,3.999996 
z"/>
<path fill="#6D0202" opacity="1.000000" stroke="none" 
	d="
M2226.250000,3.999973 
	C2227.266113,6.464271 2227.110596,9.355021 2225.674805,11.301677 
	C2222.934814,15.016809 2219.574219,18.303259 2216.281982,21.577850 
	C2143.740234,93.736481 2071.177734,165.874527 1998.594360,237.991287 
	C1994.826782,241.734772 1990.837524,245.255234 1985.307861,248.191040 
	C1982.236816,243.420929 1980.809326,239.339371 1979.381836,235.257782 
	C1996.381836,217.561951 2013.158325,199.644638 2030.424194,182.212006 
	C2081.776855,130.362762 2133.363770,78.745308 2184.736328,26.915504 
	C2190.708008,20.890720 2198.166016,15.851236 2200.198730,5.418976 
	C2208.166748,4.000000 2216.333252,4.000000 2226.250000,3.999973 
z"/>
<path fill="#310203" opacity="1.000000" stroke="none" 
	d="
M4.000000,257.713867 
	C12.213683,254.116608 17.920740,248.491089 23.581060,242.826569 
	C96.451889,169.901718 169.357529,97.011482 242.083618,23.942539 
	C247.149551,18.852728 250.866226,12.419991 255.605164,5.305876 
	C264.166656,4.000000 272.333344,4.000000 282.250000,3.999998 
	C278.183746,10.384290 272.612823,17.013830 266.514069,23.115744 
	C187.061646,102.609009 107.581093,182.074371 27.939199,261.377625 
	C21.420860,267.868195 13.674640,273.125641 5.249480,279.478027 
	C4.000000,273.142578 4.000000,266.285126 4.000000,257.713867 
z"/>
<path fill="#6D0202" opacity="1.000000" stroke="none" 
	d="
M4.000010,2485.750000 
	C7.640600,2482.808105 11.900486,2482.433350 14.786770,2480.246094 
	C20.034502,2476.269531 24.545958,2471.295898 29.225773,2466.599609 
	C87.271957,2408.349365 145.279938,2350.061279 203.340561,2291.825439 
	C209.422592,2285.725098 215.778671,2279.897949 224.015228,2274.290283 
	C229.829849,2276.764893 233.636810,2278.892822 237.443710,2281.020996 
	C232.675552,2286.498047 228.220459,2292.289062 223.091904,2297.405029 
	C156.926392,2363.408447 90.699257,2429.350098 24.365385,2495.184326 
	C18.766121,2500.741455 12.289718,2505.414795 5.110410,2511.249268 
	C4.000000,2503.833252 4.000000,2495.666748 4.000010,2485.750000 
z"/>
<path fill="#310203" opacity="1.000000" stroke="none" 
	d="
M4.000000,129.750000 
	C11.380776,126.219025 16.834333,121.462990 22.004396,116.292480 
	C53.254299,85.039848 84.584717,53.866623 115.639854,22.421566 
	C120.179756,17.824665 123.393333,11.917900 127.610306,5.308611 
	C136.166672,4.000000 144.333328,4.000000 154.250000,4.000000 
	C153.680222,12.027771 147.919937,17.625807 142.278183,23.271118 
	C102.801102,62.773087 63.370281,102.321960 23.712675,141.642014 
	C18.600330,146.710846 12.268760,150.549973 5.250987,155.479370 
	C4.000000,147.833328 4.000000,139.666672 4.000000,129.750000 
z"/>
<path fill="#6D0202" opacity="1.000000" stroke="none" 
	d="
M4.000000,1701.713867 
	C12.301468,1699.800171 16.787266,1693.517212 21.863890,1688.459106 
	C46.316349,1664.095947 70.582634,1639.546021 95.007751,1615.155151 
	C100.158134,1610.011963 105.698021,1605.258789 113.737167,1600.388672 
	C120.431374,1601.724609 124.446915,1602.997803 128.462494,1604.270996 
	C124.620346,1608.797241 121.072609,1613.618042 116.888901,1617.802856 
	C85.956062,1648.744019 54.983337,1679.646606 23.789619,1710.323853 
	C18.692226,1715.336914 12.443578,1719.179199 5.363489,1723.781250 
	C4.000000,1717.142578 4.000000,1710.285156 4.000000,1701.713867 
z"/>
<path fill="#8D0201" opacity="1.000000" stroke="none" 
	d="
M4.000000,917.713867 
	C11.970268,914.805115 16.403717,908.561035 21.525185,903.460999 
	C43.248966,881.828735 64.791420,860.014343 86.517151,838.384033 
	C91.685951,833.237915 97.306419,828.545471 105.448669,823.938477 
	C112.018723,825.427673 115.859207,826.622742 119.699677,827.817810 
	C116.865143,831.445129 114.371460,835.412720 111.142929,838.646790 
	C81.100334,868.742065 50.995255,898.775940 20.724813,928.641724 
	C16.557741,932.753113 11.388606,935.848938 5.341710,939.707520 
	C4.000000,933.142578 4.000000,926.285156 4.000000,917.713867 
z"/>
<path fill="#8D0201" opacity="1.000000" stroke="none" 
	d="
M98.241699,435.189148 
	C103.641205,436.083160 107.938538,437.378052 113.846619,439.157959 
	C112.583954,443.251801 110.025284,447.174591 106.787842,450.420349 
	C78.146515,479.135010 49.447453,507.793091 20.588921,536.289062 
	C16.408995,540.416504 11.293918,543.596985 5.305797,547.607788 
	C4.000000,541.142578 4.000000,534.285156 4.000000,525.713867 
	C11.907980,521.381409 16.935995,515.048645 22.542126,509.506683 
	C47.436806,484.897003 72.278595,460.233856 98.241699,435.189148 
z"/>
<path fill="#310203" opacity="1.000000" stroke="none" 
	d="
M2048.214600,1160.194214 
	C2043.417603,1166.514893 2039.276489,1173.489624 2033.725098,1179.058105 
	C1952.365601,1260.668213 1871.707153,1343.008057 1788.967285,1423.198975 
	C1742.572144,1468.164917 1697.130615,1514.066650 1650.835693,1559.113525 
	C1644.644775,1565.137451 1637.698608,1570.389282 1631.557007,1576.458862 
	C1614.116455,1593.695068 1596.837891,1611.097290 1579.652832,1628.588745 
	C1573.596802,1634.752686 1568.260010,1641.628174 1562.150635,1647.734131 
	C1392.070190,1817.724365 1221.957886,1987.682617 1051.722656,2157.517334 
	C1043.753052,2165.468018 1034.598877,2172.230957 1024.886353,2178.568848 
	C1023.802612,2173.105225 1023.828979,2168.619385 1023.855469,2164.133789 
	C1030.202148,2157.306641 1036.341675,2150.272461 1042.925415,2143.682129 
	C1365.010498,1821.273193 1687.125366,1498.894043 2009.308472,1176.583008 
	C2016.333618,1169.554932 2024.186523,1163.354248 2034.271973,1156.690063 
	C2040.665161,1157.806396 2044.439941,1159.000244 2048.214600,1160.194214 
z"/>
<path fill="#0B090B" opacity="1.000000" stroke="none" 
	d="
M1022.797607,2164.903320 
	C1023.828979,2168.619385 1023.802612,2173.105225 1023.696899,2179.314453 
	C1019.901978,2186.499512 1016.480164,2192.194824 1012.378418,2197.349121 
	C1009.078247,2201.496338 1004.966980,2205.000488 1001.196411,2208.770752 
	C699.548401,2510.399902 397.900391,2812.029053 96.235489,3113.641357 
	C91.054779,3118.821045 85.810493,3123.958008 80.293053,3128.767334 
	C78.596786,3130.245850 75.890846,3130.565430 71.659355,3132.169189 
	C72.595749,3127.656738 72.456215,3124.847168 73.712387,3122.973633 
	C76.660133,3118.577637 80.060692,3114.431396 83.653580,3110.529785 
	C130.154404,3060.033447 179.953857,3012.676025 226.763046,2962.555908 
	C309.596069,2873.863525 397.249359,2790.031006 482.486023,2703.774170 
	C568.219666,2617.014160 654.860535,2531.150879 741.106506,2444.897217 
	C826.880981,2359.114746 912.640808,2273.317627 998.465759,2187.585449 
	C1006.000977,2180.058350 1013.971436,2172.966797 1022.797607,2164.903320 
z"/>
<path fill="#C50302" opacity="1.000000" stroke="none" 
	d="
M1051.590820,1634.789917 
	C1056.431763,1645.351074 1064.751221,1650.561523 1073.895264,1656.715332 
	C1077.632690,1660.208984 1080.153198,1663.151611 1082.897827,1668.748413 
	C1081.664307,1675.788208 1080.206787,1680.173950 1078.749268,1684.559570 
	C1043.543457,1650.054565 1008.353638,1615.533447 973.114563,1581.062622 
	C967.977356,1576.037354 963.449158,1570.204712 956.382263,1566.665771 
	C948.735046,1570.616089 943.796021,1577.022949 938.232727,1582.563477 
	C829.175598,1691.176758 720.190491,1799.862427 611.160828,1908.503418 
	C583.314087,1936.250732 555.365356,1963.895874 525.144653,1991.951050 
	C519.331055,1989.733276 515.836182,1987.152588 512.341309,1984.571899 
	C525.378540,1971.255127 538.321838,1957.844849 551.468933,1944.637329 
	C613.894165,1881.924927 676.443726,1819.336060 738.798157,1756.553467 
	C759.890076,1735.316772 780.264587,1713.365356 801.446411,1692.220947 
	C844.778137,1648.966064 888.444092,1606.046143 931.944153,1562.959717 
	C937.145996,1557.807617 942.172363,1552.478149 949.060547,1545.525757 
	C953.875183,1542.531128 956.909424,1541.241577 960.324463,1540.959473 
	C963.347595,1544.328979 965.989929,1546.691162 968.632324,1549.053345 
	C984.834290,1567.040894 999.059509,1586.712158 1018.638000,1601.752441 
	C1030.526855,1610.885620 1040.160522,1622.954346 1051.590820,1634.789917 
z"/>
<path fill="#0A0A0B" opacity="1.000000" stroke="none" 
	d="
M2048.314209,1136.880127 
	C2045.972900,1134.518677 2043.998413,1131.537842 2041.229858,1129.897583 
	C2024.927979,1120.239624 2012.390625,1106.344604 1999.201294,1093.181519 
	C1969.012695,1063.053223 1938.828857,1032.919922 1908.765259,1002.667175 
	C1903.621338,997.490845 1898.687134,992.003479 1894.374023,986.132385 
	C1889.952759,980.114014 1890.213989,973.397034 1895.208862,967.725647 
	C1899.586304,962.755188 1904.254883,957.851196 1909.534790,953.908875 
	C1918.095581,947.516663 1926.488281,947.856750 1935.327026,954.423828 
	C1939.579712,957.583618 1943.365967,961.417969 1947.133057,965.177673 
	C1982.981323,1000.955566 2018.634644,1036.930786 2054.694336,1072.493896 
	C2063.880615,1081.553467 2070.544189,1092.118408 2077.023438,1105.388428 
	C2067.502686,1117.456299 2057.908447,1127.168213 2048.314209,1136.880127 
z"/>
<path fill="#6D0202" opacity="1.000000" stroke="none" 
	d="
M835.084778,2055.317383 
	C842.255676,2047.505981 849.165771,2039.435303 856.637329,2031.922852 
	C944.154724,1943.927734 1031.785400,1856.045288 1119.276733,1768.024292 
	C1125.732788,1761.529175 1133.723633,1756.097534 1138.027344,1745.046875 
	C1145.165283,1743.249146 1149.246094,1740.468384 1152.141235,1735.757568 
	C1156.760010,1738.582275 1160.908813,1741.798706 1162.229980,1748.501709 
	C1160.032593,1755.122070 1153.901001,1759.527832 1148.831909,1764.616089 
	C1123.439697,1790.105713 1097.843384,1815.391602 1072.420288,1840.850342 
	C1046.578613,1866.728149 1019.728943,1891.563232 994.466309,1918.058960 
	C969.187378,1944.571777 942.725586,1969.960205 916.669006,1995.727173 
	C893.502869,2018.636108 870.181641,2041.388306 844.934448,2063.902832 
	C840.321533,2060.836670 837.703186,2058.076904 835.084778,2055.317383 
z"/>
<path fill="#8D0201" opacity="1.000000" stroke="none" 
	d="
M2734.717529,452.413483 
	C2738.086914,455.446808 2740.213379,458.977173 2743.283203,463.332336 
	C2739.498291,469.662415 2735.088135,475.483490 2729.987793,480.619324 
	C2705.618652,505.158081 2681.266602,529.719849 2656.521240,553.876526 
	C2626.609863,583.076233 2597.787109,613.365906 2567.646729,642.326721 
	C2543.234375,665.783813 2518.274170,688.677124 2494.121826,712.395935 
	C2478.992188,727.254089 2464.908936,743.177734 2448.310303,758.558105 
	C2444.187988,755.006836 2442.111572,751.520752 2440.034912,748.034790 
	C2464.049805,723.256348 2487.860840,698.276123 2512.127197,673.746521 
	C2548.547119,636.931274 2585.235352,600.380859 2621.904541,563.812988 
	C2659.034668,526.785217 2696.280029,489.873230 2734.717529,452.413483 
z"/>
<path fill="#4F0202" opacity="1.000000" stroke="none" 
	d="
M2047.594238,1137.927002 
	C2057.908447,1127.168213 2067.502686,1117.456299 2077.933350,1106.638428 
	C2084.729980,1100.283325 2090.996826,1095.341187 2096.600342,1089.735962 
	C2134.568115,1051.756348 2172.425781,1013.666199 2210.234619,975.527954 
	C2215.358643,970.359192 2220.010498,964.722107 2225.746094,958.174683 
	C2235.646240,949.134888 2244.681641,941.222290 2255.266846,933.850220 
	C2259.322266,937.676636 2261.827881,940.962646 2264.333496,944.248657 
	C2259.293701,950.377502 2254.717773,956.969055 2249.140381,962.562134 
	C2202.665283,1009.169006 2156.123779,1055.710815 2109.345947,1102.013428 
	C2089.980957,1121.182007 2069.991455,1139.719849 2049.250488,1159.369385 
	C2044.439941,1159.000244 2040.665161,1157.806396 2035.432251,1156.193848 
	C2038.274048,1150.174805 2042.574219,1144.574341 2047.594238,1137.927002 
z"/>
<path fill="#4F0202" opacity="1.000000" stroke="none" 
	d="
M833.918335,2055.921143 
	C837.703186,2058.076904 840.321533,2060.836670 843.833862,2064.729980 
	C843.242004,2068.046631 842.072571,2070.552979 840.223022,2072.364502 
	C813.766602,2098.278809 787.145386,2124.025146 760.717041,2149.967773 
	C742.302795,2168.043701 724.041504,2186.277588 705.862915,2204.590576 
	C690.966736,2219.597168 676.293335,2234.825195 660.449463,2250.762939 
	C654.842590,2250.598633 650.307373,2249.626709 644.406921,2248.217285 
	C672.848267,2216.427246 702.421753,2184.847656 732.568237,2153.824707 
	C745.997803,2140.004639 760.847839,2127.575928 774.566650,2114.023193 
	C788.773499,2099.988281 802.278503,2085.245361 816.325500,2071.044434 
	C821.453247,2065.860596 827.256714,2061.345215 833.918335,2055.921143 
z"/>
<path fill="#6D0202" opacity="1.000000" stroke="none" 
	d="
M2265.395752,943.460815 
	C2261.827881,940.962646 2259.322266,937.676636 2256.414551,933.189148 
	C2274.465088,912.788818 2292.674561,893.348816 2311.422363,874.442505 
	C2348.469482,837.082153 2385.796631,799.999146 2423.058594,762.852417 
	C2427.767090,758.158630 2432.780273,753.770569 2438.843750,748.637817 
	C2442.111572,751.520752 2444.187988,755.006836 2447.205322,759.293091 
	C2443.942871,765.154480 2440.112549,770.588989 2435.476074,775.216125 
	C2405.022705,805.607422 2374.424561,835.853821 2343.788330,866.060974 
	C2340.039307,869.757446 2335.652832,872.799683 2331.786621,876.387451 
	C2323.557129,884.024109 2314.366455,890.962036 2307.576172,899.738708 
	C2295.329346,915.568359 2280.639404,928.826050 2265.395752,943.460815 
z"/>
<path fill="#8D0201" opacity="1.000000" stroke="none" 
	d="
M1151.360840,1734.676270 
	C1149.246094,1740.468384 1145.165283,1743.249146 1138.231934,1743.616455 
	C1117.828003,1724.732788 1098.724365,1705.736206 1079.185059,1685.649658 
	C1080.206787,1680.173950 1081.664307,1675.788208 1083.542969,1669.720459 
	C1095.521484,1679.014160 1107.765259,1689.368042 1118.439819,1701.144165 
	C1128.701538,1712.464600 1139.021729,1723.610352 1151.360840,1734.676270 
z"/>
<path fill="#C50302" opacity="1.000000" stroke="none" 
	d="
M890.747620,824.304871 
	C897.547913,830.873108 903.228271,837.327332 910.027039,844.447266 
	C924.310303,859.483459 937.283813,874.036560 950.735046,888.133728 
	C956.065247,893.719849 962.456726,898.293335 969.522339,903.934143 
	C989.761597,924.185974 1008.843628,943.831482 1029.072754,964.049438 
	C1030.894653,972.514648 1026.722168,976.529907 1018.258179,977.962891 
	C1012.641296,972.913086 1008.499695,967.693176 1003.765015,963.082214 
	C978.975647,938.939819 953.920410,915.069885 929.203247,890.854370 
	C918.763245,880.626221 909.004211,869.706238 898.766846,859.266235 
	C895.593994,856.030457 891.865479,853.339600 888.131897,850.179810 
	C880.438965,853.445679 876.083374,859.510620 871.021545,864.546875 
	C813.414124,921.862122 755.940369,979.311646 698.282288,1036.575684 
	C691.728638,1043.084473 684.220703,1048.626099 677.250244,1054.724976 
	C674.248230,1057.351685 670.829651,1059.833374 668.732666,1063.106445 
	C659.629211,1077.315308 646.660461,1087.892578 634.993774,1099.657227 
	C606.852966,1128.034546 578.518677,1156.221680 550.076599,1184.297485 
	C538.754395,1195.473999 527.832092,1206.982788 514.930481,1216.646484 
	C506.070862,1223.282715 499.450836,1232.913818 491.853790,1241.228027 
	C488.718384,1244.659546 485.800537,1248.303345 482.517822,1251.584473 
	C469.327911,1264.767944 456.034027,1277.847168 440.448181,1291.311279 
	C434.736755,1289.092896 431.355682,1286.528198 427.974579,1283.963501 
	C455.030243,1256.440796 482.055023,1228.887573 509.156372,1201.410034 
	C520.380859,1190.029785 531.791687,1178.833618 543.079590,1167.515869 
	C650.777588,1059.531860 758.469849,951.542358 866.151672,843.542358 
	C871.322815,838.355957 876.381897,833.057861 882.278687,826.662048 
	C885.251892,825.071777 887.439819,824.631348 890.747620,824.304871 
z"/>
<path fill="#6D0202" opacity="1.000000" stroke="none" 
	d="
M939.416870,379.495850 
	C944.620911,380.304260 948.753662,381.652863 954.434082,383.495850 
	C952.265564,388.651184 948.969238,393.734100 944.771423,397.911072 
	C851.677185,490.542816 758.485046,583.076172 665.295471,675.612122 
	C663.406494,677.487854 661.326233,679.171143 656.754761,680.696716 
	C650.931946,678.753662 647.689575,677.058044 644.447144,675.362427 
	C649.370667,669.969666 654.099609,664.383301 659.246643,659.213013 
	C747.870911,570.187927 836.540100,481.207458 925.232300,392.250031 
	C929.446960,388.022797 933.967468,384.100372 939.416870,379.495850 
z"/>
<path fill="#4F0202" opacity="1.000000" stroke="none" 
	d="
M643.425659,675.890503 
	C647.689575,677.058044 650.931946,678.753662 655.652161,681.547119 
	C651.911377,688.643616 647.025757,694.974731 641.421204,700.588074 
	C600.094788,741.979248 558.806213,783.411316 517.122375,824.441101 
	C496.782379,844.461914 475.244476,863.267761 454.956329,883.338745 
	C439.869293,898.264404 426.017059,914.431885 411.414398,929.856567 
	C405.940552,935.638367 399.900177,940.883728 393.081238,947.197510 
	C387.173981,947.984070 382.303558,947.946899 375.598572,947.898621 
	C379.254761,941.276733 384.273438,934.196655 390.307739,928.126099 
	C469.825806,848.129211 549.476440,768.264160 629.141296,688.413391 
	C633.345764,684.199097 637.973511,680.407104 643.425659,675.890503 
z"/>
<path fill="#8D0201" opacity="1.000000" stroke="none" 
	d="
M511.145630,1985.140869 
	C515.836182,1987.152588 519.331055,1989.733276 524.096924,1992.750122 
	C520.589661,1998.669067 516.116821,2004.457642 510.985535,2009.587524 
	C462.106049,2058.454590 413.164337,2107.259521 364.140961,2155.982422 
	C322.667114,2197.202148 281.061707,2238.289551 238.479156,2280.228271 
	C233.636810,2278.892822 229.829849,2276.764893 225.162125,2273.648926 
	C225.130783,2271.621826 225.877945,2270.502197 226.801422,2269.554443 
	C259.761749,2235.741211 292.491577,2201.698242 325.782776,2168.213623 
	C358.605774,2135.199951 392.080597,2102.835693 425.093445,2070.009521 
	C434.984772,2060.174316 443.985046,2049.440430 453.922028,2039.654907 
	C472.393066,2021.464966 491.252319,2003.669556 511.145630,1985.140869 
z"/>
<path fill="#C50302" opacity="1.000000" stroke="none" 
	d="
M1753.992065,480.693451 
	C1759.158203,486.593781 1764.122559,492.686523 1769.528076,498.358704 
	C1786.198486,515.850891 1803.037354,533.182556 1821.265869,550.679382 
	C1824.314331,553.005676 1825.907959,555.229187 1827.538086,559.932129 
	C1826.160278,566.635193 1824.746094,570.858765 1822.185059,574.209534 
	C1815.606689,568.428955 1809.960938,563.736450 1804.778198,558.578796 
	C1768.436401,522.412598 1732.219971,486.120453 1695.852295,449.980316 
	C1693.187378,447.331970 1689.650269,445.561310 1686.113159,443.100616 
	C1681.089600,447.774170 1676.623291,451.716003 1672.396729,455.900055 
	C1658.190308,469.963715 1644.201538,484.249390 1629.886597,498.200928 
	C1604.147217,523.286621 1578.028442,547.985901 1552.470459,573.253418 
	C1538.292358,587.270447 1525.187378,602.367981 1511.143433,616.526855 
	C1480.642578,647.277649 1450.002808,677.894592 1419.116211,708.257263 
	C1401.579956,725.495972 1385.311523,744.073120 1365.554565,759.026001 
	C1360.298828,763.003723 1355.982910,768.279724 1351.483398,773.186890 
	C1344.762573,780.516724 1338.606934,788.391541 1331.606201,795.433228 
	C1303.418213,823.785583 1275.008301,851.917419 1246.651245,880.101501 
	C1242.874268,883.855408 1239.268066,887.901306 1235.007568,891.028137 
	C1214.462402,906.106445 1197.134033,924.744446 1180.494873,943.603271 
	C1165.917603,960.124878 1150.348022,975.457336 1133.664551,989.854309 
	C1129.861572,986.109436 1127.123413,983.360657 1124.385132,980.611816 
	C1157.529175,946.958618 1190.660034,913.292480 1223.820679,879.655579 
	C1263.087280,839.824951 1302.320190,799.960571 1341.697144,760.239258 
	C1353.407349,748.426697 1365.705566,737.198425 1377.472290,725.440369 
	C1417.048218,685.893555 1456.520874,646.243042 1496.005981,606.605408 
	C1555.680420,546.700623 1615.332153,486.773254 1675.613159,425.686951 
	C1679.473755,422.303101 1682.714844,420.087738 1685.821533,417.964294 
	C1698.669312,425.587860 1717.004639,443.631989 1736.367432,467.977417 
	C1741.951050,475.261200 1747.593994,478.537537 1753.992065,480.693451 
z"/>
<path fill="#310203" opacity="1.000000" stroke="none" 
	d="
M969.953979,1548.263550 
	C965.989929,1546.691162 963.347595,1544.328979 960.814575,1539.699707 
	C965.868652,1531.208984 970.260315,1524.433472 975.839050,1518.842285 
	C1107.656494,1386.732300 1239.577393,1254.725342 1371.608521,1122.828857 
	C1377.189209,1117.253906 1384.010498,1112.920898 1392.093872,1108.033813 
	C1398.857300,1108.292480 1403.780396,1108.526611 1408.703613,1108.760620 
	C1401.915283,1116.903687 1395.711182,1125.630005 1388.251099,1133.102295 
	C1272.857544,1248.685547 1157.300781,1364.105713 1041.782715,1479.564575 
	C1024.808716,1496.530029 1007.949707,1513.612793 990.809204,1530.408203 
	C984.643738,1536.449463 977.806335,1541.805176 969.953979,1548.263550 
z"/>
<path fill="#6D0202" opacity="1.000000" stroke="none" 
	d="
M1865.648804,653.081787 
	C1860.837769,658.556885 1856.316895,664.322571 1851.170898,669.462402 
	C1797.997070,722.573608 1744.774658,775.636536 1691.449829,828.596008 
	C1670.235962,849.664673 1648.733398,870.442444 1624.346191,892.001221 
	C1616.041748,892.329224 1610.753174,892.008606 1606.391968,890.563721 
	C1633.858398,862.473877 1660.303833,835.415466 1686.957153,808.563293 
	C1733.757935,761.413696 1780.654297,714.358765 1827.602295,667.355957 
	C1833.207275,661.744446 1839.384521,656.704590 1847.325439,651.587891 
	C1854.785889,652.211304 1860.217285,652.646545 1865.648804,653.081787 
z"/>
<path fill="#4F0202" opacity="1.000000" stroke="none" 
	d="
M1605.464600,891.687988 
	C1610.753174,892.008606 1616.041748,892.329224 1623.322510,892.823486 
	C1620.150513,899.045471 1615.367554,905.474915 1609.762451,911.082703 
	C1559.452759,961.415039 1509.094849,1011.700195 1458.529785,1061.775635 
	C1442.942139,1077.212280 1426.673584,1091.961182 1409.710205,1107.892822 
	C1403.780396,1108.526611 1398.857300,1108.292480 1392.946533,1106.856445 
	C1397.664551,1099.204224 1403.063477,1092.449463 1409.122803,1086.350830 
	C1468.505859,1026.582764 1527.965454,966.890442 1587.515625,907.288879 
	C1593.104736,901.695007 1599.463257,896.869995 1605.464600,891.687988 
z"/>
<path fill="#8D0201" opacity="1.000000" stroke="none" 
	d="
M1866.657959,652.316833 
	C1860.217285,652.646545 1854.785889,652.211304 1848.223145,650.471375 
	C1854.168213,640.791138 1863.616821,634.203430 1867.917603,622.218445 
	C1862.377319,616.437561 1856.935791,610.829285 1851.572021,605.147461 
	C1842.133545,595.149475 1832.742676,585.106445 1823.331787,575.082336 
	C1824.746094,570.858765 1826.160278,566.635193 1828.071899,560.816772 
	C1849.924194,576.705566 1869.100708,596.308350 1887.225830,620.606934 
	C1888.730713,625.247498 1888.944458,627.471252 1889.158325,629.695007 
	C1881.994629,636.980652 1874.830933,644.266296 1866.657959,652.316833 
z"/>
<path fill="#6D0202" opacity="1.000000" stroke="none" 
	d="
M1889.967529,629.124756 
	C1888.944458,627.471252 1888.730713,625.247498 1888.320801,621.360291 
	C1893.433105,621.324524 1893.849731,624.417114 1889.967529,629.124756 
z"/>
<path fill="#8D0201" opacity="1.000000" stroke="none" 
	d="
M426.741058,1284.484375 
	C431.355682,1286.528198 434.736755,1289.092896 439.362915,1292.066772 
	C438.196655,1295.617554 436.095825,1299.068237 433.325043,1301.851929 
	C411.238190,1324.042480 389.060394,1346.142822 366.809998,1368.169189 
	C363.524963,1371.421143 359.620972,1374.037964 356.162262,1377.126587 
	C350.717194,1381.989380 345.110107,1386.722412 340.105865,1392.015381 
	C331.447052,1401.173828 323.577484,1411.096313 314.706390,1420.032715 
	C285.609802,1449.343750 256.383148,1478.530884 226.856934,1507.408203 
	C212.139420,1521.802246 195.263290,1534.214111 181.906738,1549.713867 
	C167.517456,1566.412354 151.772202,1581.607788 136.481598,1597.329346 
	C134.626923,1599.236206 132.582092,1600.958252 129.543915,1603.518433 
	C124.446915,1602.997803 120.431374,1601.724609 114.902504,1599.940430 
	C114.544273,1597.806396 115.505501,1595.993164 116.883026,1594.588257 
	C145.297577,1565.606323 173.639328,1536.551636 202.241028,1507.755249 
	C242.100967,1467.624390 282.110535,1427.641724 322.153046,1387.692871 
	C356.533661,1353.392578 391.050781,1319.229126 426.741058,1284.484375 
z"/>
<path fill="#C50302" opacity="1.000000" stroke="none" 
	d="
M120.811508,827.068726 
	C115.859207,826.622742 112.018723,825.427673 106.710373,823.799011 
	C113.179176,814.469482 120.714226,805.173645 129.112534,796.737305 
	C263.109680,662.133240 397.216888,527.638794 531.299622,393.119995 
	C562.817200,361.499969 594.337280,329.882355 626.421509,297.116150 
	C627.699402,295.710754 628.412048,295.452789 630.167114,294.741272 
	C636.052612,298.359558 640.895752,302.431396 646.870850,307.244965 
	C657.759644,318.757996 667.260803,329.776337 677.355713,340.220856 
	C685.146484,348.281525 693.690430,355.613342 701.883118,363.286682 
	C706.230408,367.358368 710.640869,371.368958 714.853943,375.576233 
	C733.622131,394.318176 752.329346,413.121185 772.178223,432.482056 
	C777.291077,440.831238 772.110779,444.602631 765.422424,448.776581 
	C738.106079,423.612976 711.980042,397.996277 686.002625,372.229736 
	C673.726746,360.053589 661.773376,347.552979 649.597290,335.275208 
	C644.487366,330.122559 639.179138,325.166534 633.259399,319.442688 
	C629.464783,322.312103 626.203064,324.392944 623.407410,326.977814 
	C618.523010,331.493896 613.983154,336.379852 609.197998,341.006348 
	C577.191223,371.951782 543.708069,401.527435 513.511475,434.146545 
	C478.241028,472.246552 440.858154,508.145935 404.403137,545.003967 
	C385.270172,564.348450 363.816528,581.477966 345.427612,601.463379 
	C286.825714,665.152710 223.403625,724.014221 162.856888,785.742737 
	C149.404938,799.457214 135.577759,812.803711 120.811508,827.068726 
z"/>
<path fill="#4F0202" opacity="1.000000" stroke="none" 
	d="
M1978.193848,235.868347 
	C1980.809326,239.339371 1982.236816,243.420929 1984.194092,249.053757 
	C1983.620239,252.266190 1982.770752,254.187347 1981.375732,255.550262 
	C1951.849487,284.396515 1922.246826,313.164368 1892.702881,341.992462 
	C1888.421753,346.169769 1884.356079,350.568329 1880.206299,354.879608 
	C1875.602661,359.662598 1871.016846,364.462891 1865.201416,368.096924 
	C1863.690430,361.702362 1863.401123,356.466522 1863.111816,351.230652 
	C1897.001465,316.394135 1930.855591,281.522919 1964.831543,246.770844 
	C1968.529785,242.988190 1972.930908,239.893005 1978.193848,235.868347 
z"/>
<path fill="#310203" opacity="1.000000" stroke="none" 
	d="
M1861.946533,351.852356 
	C1863.401123,356.466522 1863.690430,361.702362 1864.029297,368.955872 
	C1860.391113,375.614288 1857.104492,380.654053 1852.950439,384.831268 
	C1824.949219,412.989014 1796.797729,440.997986 1768.597168,468.956451 
	C1764.854736,472.666656 1760.559326,475.818939 1755.256104,479.961487 
	C1747.593994,478.537537 1741.951050,475.261200 1737.619629,468.546753 
	C1745.158447,466.463867 1751.072388,462.345703 1756.319214,456.971344 
	C1783.781494,428.841278 1811.175781,400.643982 1838.781616,372.655548 
	C1845.761108,365.579437 1853.429321,359.182831 1861.946533,351.852356 
z"/>
<path fill="#8D0201" opacity="1.000000" stroke="none" 
	d="
M1123.136963,981.089233 
	C1127.123413,983.360657 1129.861572,986.109436 1133.081055,991.040588 
	C1096.354736,1030.118408 1059.146118,1067.012939 1021.940308,1103.910278 
	C1010.631165,1115.125732 999.304199,1126.323486 988.031311,1137.575195 
	C968.326477,1157.242920 948.656860,1176.945923 927.744324,1196.206543 
	C923.085693,1193.302612 919.655334,1190.826294 916.224976,1188.349854 
	C917.917603,1186.298218 919.473572,1184.113281 921.323547,1182.215088 
	C945.029846,1157.890137 968.570557,1133.399048 992.562195,1109.358276 
	C1033.025757,1068.811646 1073.775269,1028.550415 1114.432739,988.197388 
	C1116.789795,985.858032 1119.397583,983.771118 1123.136963,981.089233 
z"/>
<path fill="#6D0202" opacity="1.000000" stroke="none" 
	d="
M915.042297,1188.953857 
	C919.655334,1190.826294 923.085693,1193.302612 927.126831,1197.402100 
	C924.198303,1203.001221 920.850037,1207.168701 917.089417,1210.923218 
	C887.852966,1240.112305 858.760742,1269.451538 829.155151,1298.262695 
	C813.434509,1313.561523 796.702209,1327.816406 780.591003,1342.720215 
	C774.730835,1348.141357 768.668091,1353.562012 763.874939,1359.876465 
	C750.083496,1378.045044 733.324219,1393.222412 714.730835,1408.408447 
	C707.631714,1408.098022 702.452820,1407.910889 697.273926,1407.723633 
	C722.643494,1381.350464 747.694946,1354.661743 773.455322,1328.675781 
	C814.690430,1287.079834 856.381226,1245.935547 897.920227,1204.641357 
	C903.106445,1199.485718 908.540466,1194.579590 915.042297,1188.953857 
z"/>
<path fill="#4F0202" opacity="1.000000" stroke="none" 
	d="
M696.222900,1408.251709 
	C702.452820,1407.910889 707.631714,1408.098022 714.021729,1409.539307 
	C710.258423,1416.120728 705.447693,1421.612427 700.284607,1426.750000 
	C636.817444,1489.902832 573.314087,1553.019287 509.767120,1616.091797 
	C504.125763,1621.690918 498.113251,1626.916016 492.273132,1632.314819 
	C487.481110,1632.171509 482.689117,1632.028076 476.054291,1631.887451 
	C479.836731,1625.380859 485.098206,1618.510620 491.143280,1612.417847 
	C554.167969,1548.896484 617.302368,1485.483887 680.466736,1422.101318 
	C685.129456,1417.422607 690.259338,1413.209351 696.222900,1408.251709 
z"/>
<path fill="#0B090B" opacity="1.000000" stroke="none" 
	d="
M491.535034,1633.415039 
	C498.113251,1626.916016 504.125763,1621.690918 509.767120,1616.091797 
	C573.314087,1553.019287 636.817444,1489.902832 700.284607,1426.750000 
	C705.447693,1421.612427 710.258423,1416.120728 715.941895,1409.662598 
	C733.324219,1393.222412 750.083496,1378.045044 763.874939,1359.876465 
	C768.668091,1353.562012 774.730835,1348.141357 780.591003,1342.720215 
	C796.702209,1327.816406 813.434509,1313.561523 829.155151,1298.262695 
	C858.760742,1269.451538 887.852966,1240.112305 917.089417,1210.923218 
	C920.850037,1207.168701 924.198303,1203.001221 928.355103,1197.829590 
	C948.656860,1176.945923 968.326477,1157.242920 988.031311,1137.575195 
	C999.304199,1126.323486 1010.631165,1115.125732 1021.940308,1103.910278 
	C1059.146118,1067.012939 1096.354736,1030.118408 1134.145630,992.036621 
	C1150.348022,975.457336 1165.917603,960.124878 1180.494873,943.603271 
	C1197.134033,924.744446 1214.462402,906.106445 1235.007568,891.028137 
	C1239.268066,887.901306 1242.874268,883.855408 1246.651245,880.101501 
	C1275.008301,851.917419 1303.418213,823.785583 1331.606201,795.433228 
	C1338.606934,788.391541 1344.762573,780.516724 1351.483398,773.186890 
	C1355.982910,768.279724 1360.298828,763.003723 1365.554565,759.026001 
	C1385.311523,744.073120 1401.579956,725.495972 1419.116211,708.257263 
	C1450.002808,677.894592 1480.642578,647.277649 1511.143433,616.526855 
	C1525.187378,602.367981 1538.292358,587.270447 1552.470459,573.253418 
	C1578.028442,547.985901 1604.147217,523.286621 1629.886597,498.200928 
	C1644.201538,484.249390 1658.190308,469.963715 1672.396729,455.900055 
	C1676.623291,451.716003 1681.089600,447.774170 1686.113159,443.100616 
	C1689.650269,445.561310 1693.187378,447.331970 1695.852295,449.980316 
	C1732.219971,486.120453 1768.436401,522.412598 1804.778198,558.578796 
	C1809.960938,563.736450 1815.606689,568.428955 1822.185059,574.209534 
	C1832.742676,585.106445 1842.133545,595.149475 1851.572021,605.147461 
	C1856.935791,610.829285 1862.377319,616.437561 1867.917603,622.218445 
	C1863.616821,634.203430 1854.168213,640.791138 1846.194092,650.283203 
	C1839.384521,656.704590 1833.207275,661.744446 1827.602295,667.355957 
	C1780.654297,714.358765 1733.757935,761.413696 1686.957153,808.563293 
	C1660.303833,835.415466 1633.858398,862.473877 1606.391968,890.563721 
	C1599.463257,896.869995 1593.104736,901.695007 1587.515625,907.288879 
	C1527.965454,966.890442 1468.505859,1026.582764 1409.122803,1086.350830 
	C1403.063477,1092.449463 1397.664551,1099.204224 1391.106445,1106.831909 
	C1384.010498,1112.920898 1377.189209,1117.253906 1371.608521,1122.828857 
	C1239.577393,1254.725342 1107.656494,1386.732300 975.839050,1518.842285 
	C970.260315,1524.433472 965.868652,1531.208984 960.433838,1538.692383 
	C956.909424,1541.241577 953.875183,1542.531128 949.710876,1544.382202 
	C936.289551,1531.929688 924.349976,1518.557617 911.588501,1506.022339 
	C902.441345,1497.037109 897.681763,1497.552124 887.715698,1506.484009 
	C883.271057,1510.467285 879.156738,1514.821777 874.931213,1519.046387 
	C797.458740,1596.503784 720.008728,1673.983887 642.493958,1751.399170 
	C635.926819,1757.957764 628.934875,1764.091064 621.073853,1771.213379 
	C611.743103,1773.140747 604.973328,1777.096558 599.168396,1782.943604 
	C594.474670,1787.671265 589.687439,1792.305908 584.976379,1797.016479 
	C490.280518,1891.704102 395.594360,1986.401245 300.885651,2081.075928 
	C295.705444,2086.254395 290.621124,2091.583740 285.006195,2096.259033 
	C277.059357,2102.876221 271.329254,2102.939453 263.507385,2096.684570 
	C258.843658,2092.954834 254.658096,2088.604004 250.417114,2084.372314 
	C222.591400,2056.608154 194.934616,2028.672607 166.913712,2001.107056 
	C160.825790,1995.117920 153.484253,1990.403198 145.483154,1984.612793 
	C150.929306,1976.754028 157.314423,1969.086182 164.340164,1962.058716 
	C266.759308,1859.614136 369.276184,1757.267334 471.719696,1654.847046 
	C478.288696,1648.279785 484.447357,1641.302002 491.535034,1633.415039 
z"/>
</svg>